<?xml version="1.0" encoding="utf-8"?>
<svg viewBox="-21.637 -16.189 550.235 389.906" width="424.898px" height="59.8526px" preserveAspectRatio="none" xmlns="http://www.w3.org/2000/svg" xmlns:bx="https://boxy-svg.com"><defs><bx:export><bx:file format="svg"/></bx:export></defs><path stroke-width="0" d="M 49.002 252.098 C 74.664 249.098 359.501 249.881 390.729 254.976 C 398.126 256.183 396.949 256.781 399.002 259.292 C 401.416 262.246 403.189 269.411 403.319 272.602 C 403.404 274.698 400.379 276.109 401.88 277.278 C 405.64 280.205 441.195 275.924 450.441 278.717 C 455.599 280.275 457.567 282.465 459.434 285.551 C 461.373 288.757 462.279 294.256 461.592 297.781 C 460.965 300.998 458.572 304.072 456.196 306.055 C 453.872 307.995 451.352 308.957 447.563 309.652 C 442.34 310.61 437.325 310.108 426.7 309.652 C 407.081 308.81 363.616 303.685 330.297 302.458 C 295.387 301.172 239.579 301.673 221.664 302.458 C 213.994 302.794 212.678 304.619 208.714 303.897 C 204.912 303.204 200.622 301.471 198.283 298.501 C 195.764 295.303 194.765 286.772 194.686 284.832 C 194.656 284.124 195.814 284.071 195.045 283.753 C 189.707 281.539 70.32 287.111 50.441 283.033 C 43.073 281.522 42.234 279.997 40.009 276.918 C 37.701 273.723 36.384 267.808 37.132 263.969 C 37.847 260.295 41.683 256.192 43.966 254.256 C 45.642 252.836 44.09 252.672 49.002 252.098 Z" style="stroke-width: 2px; fill: rgb(240, 187, 222); stroke: rgba(129, 151, 57, 0); stroke-linecap: round;"/><path style="fill: rgba(216, 216, 216, 0); stroke-width: 8px; stroke: rgb(163, 225, 154); stroke-linecap: round;" d="M 146.943 52.427 C 140.606 37.225 118.37 19.831 101.144 29.41 C 85.415 38.157 86.922 63.749 93.015 77.572 C 101.195 96.132 119.441 108.215 139.462 109.924 C 150.348 110.854 158.538 106.882 159.197 95.443 C 160.187 78.26 135.543 89.268 126.748 87.277 C 124.251 86.712 131.327 84.939 133.758 84.136 C 137.71 82.83 150.309 77.645 154.929 80.217 C 159.878 82.971 154.686 91.569 155.246 97.205 C 156.207 106.88 159.687 113.951 163.849 122.304"/><path style="fill: rgba(216, 216, 216, 0); stroke-width: 8px; stroke: rgb(163, 225, 154); stroke-linecap: round;" d="M 211.107 75.399 C 192.415 55.951 163.976 65.861 173.416 94.514 C 177.455 106.771 194.795 101.13 201.36 94.137 C 208.463 86.571 207.533 72.822 206.697 63.322"/><path style="fill: rgba(216, 216, 216, 0); stroke-width: 8px; stroke: rgb(163, 225, 154); stroke-linecap: round;" d="M 285.976 38.865 C 289.363 77.906 298.892 121.242 343.003 123.763"/><path style="fill: rgba(216, 216, 216, 0); stroke-width: 8px; stroke: rgb(163, 225, 154); stroke-linecap: round;" d="M 288.848 78.273 C 296.535 76.666 304.227 75.142 312.022 74.242"/><path style="fill: rgba(216, 216, 216, 0); stroke-width: 8px; stroke: rgb(163, 225, 154); stroke-linecap: round;" d="M 350.797 73.953 C 347.634 73.081 338.742 71.231 335.532 73.356 C 331.484 76.035 331.335 93.24 334.78 96.489 C 341.222 102.563 353.436 102.927 361.731 102.161 C 368.594 101.526 368.069 88.11 366.953 83.462 C 365.059 75.574 351.403 66.208 343.528 66.208"/><path style="fill: rgba(216, 216, 216, 0); stroke-width: 8px; stroke: rgb(163, 225, 154); stroke-linecap: round;" d="M 184.383 227.076 C 190.645 215.263 196.789 203.697 199.51 190.432 C 201.335 181.53 202.239 172.346 202.975 163.302 C 203.466 157.26 203.715 153.425 203.826 147.502 C 204.52 110.386 187.842 160.437 192.169 171.253 C 200.246 191.439 220.822 211.475 239.957 221.286"/><path style="fill: rgba(216, 216, 216, 0); stroke-width: 8px; stroke: rgb(163, 225, 154); stroke-linecap: round;" d="M 260.328 185.129 C 240.346 152.663 221.478 201.049 241.458 215.587 C 263.796 231.84 270.004 189.583 263.975 176.614 C 258.472 164.775 257.485 190.41 261.385 195.666 C 266.427 202.46 277.541 203.039 283.694 209.21"/><path style="fill: rgba(216, 216, 216, 0); stroke-width: 8px; stroke: rgb(163, 225, 154); stroke-linecap: round;" d="M 276.153 130.272 C 277.828 139.826 281.101 148.415 284.703 157.4 C 287.813 165.156 291.061 172.906 294.211 180.647 C 300.35 195.735 295.586 184.103 300.503 197.121 C 308.617 218.603 304.068 205.236 301.738 191.271 C 299.656 178.788 302.331 148.31 323.964 161.043 C 337.7 169.129 338.404 197.226 329.63 208.785 C 325.549 214.161 313.603 218.031 309.107 211.374"/></svg>