<?xml version="1.0" encoding="utf-8"?>
<svg viewBox="-2.509 3.615 505.315 338.369" width="424.898px" height="59.8526px" xmlns="http://www.w3.org/2000/svg">
  <path stroke-width="0" d="M 49.002 252.098 C 74.664 249.098 359.501 249.881 390.729 254.976 C 398.126 256.183 396.949 256.781 399.002 259.292 C 401.416 262.246 403.189 269.411 403.319 272.602 C 403.404 274.698 400.379 276.109 401.88 277.278 C 405.64 280.205 441.195 275.924 450.441 278.717 C 455.599 280.275 457.567 282.465 459.434 285.551 C 461.373 288.757 462.279 294.256 461.592 297.781 C 460.965 300.998 458.572 304.072 456.196 306.055 C 453.872 307.995 451.352 308.957 447.563 309.652 C 442.34 310.61 437.325 310.108 426.7 309.652 C 407.081 308.81 363.616 303.685 330.297 302.458 C 295.387 301.172 239.579 301.673 221.664 302.458 C 213.994 302.794 212.678 304.619 208.714 303.897 C 204.912 303.204 200.622 301.471 198.283 298.501 C 195.764 295.303 194.765 286.772 194.686 284.832 C 194.656 284.124 195.814 284.071 195.045 283.753 C 189.707 281.539 70.32 287.111 50.441 283.033 C 43.073 281.522 42.234 279.997 40.009 276.918 C 37.701 273.723 36.384 267.808 37.132 263.969 C 37.847 260.295 41.683 256.192 43.966 254.256 C 45.642 252.836 44.09 252.672 49.002 252.098 Z" style="stroke-width: 2px; fill: rgb(240, 187, 222); stroke: rgba(129, 151, 57, 0);"/>
</svg>